<svg width="220" height="74" viewBox="0 0 220 74" fill="none" xmlns="http://www.w3.org/2000/svg">
<path d="M207.435 20.5996V35.4878L185.883 35.4917V20.5996H179.34V42.72H180.103C187.883 42.7162 195.662 42.7085 203.441 42.6969C204.953 42.6949 206.465 42.6904 207.977 42.6859C210.027 42.6798 212.077 42.6737 214.128 42.6739V45.2385H220.001V35.4272H214.19C214.106 35.2976 214.106 35.0651 214.106 34.6479V21.48C214.106 21.2676 214.093 21.0533 214.08 20.8504C214.075 20.7644 214.07 20.6805 214.066 20.5996H207.435Z" fill="#00578A"/>
<path d="M131.682 29.3056V42.6516H125.078V20.6069C126.813 20.6069 128.524 20.6069 130.233 20.6165C130.471 20.6531 130.701 20.7331 130.91 20.8528C136.804 23.3592 142.695 25.8726 148.581 28.3931C148.816 28.5044 149.074 28.56 149.334 28.5557C149.594 28.5514 149.85 28.4872 150.081 28.3682C155.783 25.8438 161.493 23.3368 167.21 20.847C167.562 20.6978 167.939 20.6176 168.321 20.6107C169.865 20.5857 171.408 20.6107 173.01 20.6107V42.6804H166.439V29.3787C166.08 29.5227 165.837 29.6111 165.604 29.7149C160.454 31.9946 155.306 34.2794 150.162 36.5693C149.933 36.6897 149.679 36.7552 149.421 36.7605C149.162 36.7658 148.906 36.711 148.673 36.6001C143.311 34.2666 137.94 31.9497 132.562 29.6495C132.302 29.5285 132.033 29.4401 131.682 29.3056Z" fill="#00578A"/>
<path d="M84.1484 20.5996H119.003V21.6744C119.003 23.3924 118.967 25.1104 119.019 26.8285C119.041 27.552 118.787 27.7047 118.108 27.7028C109.339 27.6824 100.569 27.6779 91.7994 27.6894H90.7476V42.4111H84.1484V20.5996Z" fill="#00578A"/>
<path d="M84.0156 53.5857V49.1426H87.247V49.7878H84.8382V53.5857H84.0156Z" fill="#151515"/>
<path d="M90.0771 53.5849C89.6792 53.5946 89.2859 53.499 88.9381 53.308C88.6162 53.1219 88.3561 52.8473 88.1897 52.5176C88.0038 52.139 87.9123 51.7221 87.9228 51.3015C87.9113 50.8778 88.0028 50.4574 88.1897 50.0758C88.3561 49.7462 88.6162 49.4715 88.9381 49.2854C89.2856 49.0936 89.6791 48.9979 90.0771 49.0086C90.4762 48.9987 90.8708 49.0942 91.2199 49.2854C91.5427 49.47 91.8025 49.7451 91.9664 50.0758C92.1502 50.4549 92.2403 50.8718 92.2294 51.292C92.2408 51.7153 92.1507 52.1352 91.9664 52.5176C91.8025 52.8484 91.5427 53.1235 91.2199 53.308C90.8704 53.4983 90.4761 53.5938 90.0771 53.5849ZM90.0771 52.951C90.2599 52.9575 90.4418 52.9232 90.6093 52.8504C90.7767 52.7777 90.9253 52.6685 91.044 52.531C91.2876 52.2484 91.4094 51.8354 91.4094 51.292C91.4094 50.7485 91.2876 50.3387 91.044 50.0625C90.924 49.927 90.775 49.8197 90.6077 49.7483C90.4405 49.677 90.2592 49.6434 90.0771 49.6501C89.8949 49.6431 89.7136 49.6766 89.5462 49.748C89.3789 49.8193 89.2299 49.9268 89.1102 50.0625C88.8704 50.3374 88.7505 50.7472 88.7505 51.292C88.7505 51.8367 88.8704 52.2497 89.1102 52.531C89.2286 52.6687 89.3772 52.778 89.5447 52.8508C89.7122 52.9236 89.8942 52.9578 90.0771 52.951Z" fill="#151515"/>
<path d="M93.5144 55.4705V50.145C93.5144 49.9732 93.5144 49.7977 93.4946 49.6201C93.4749 49.4426 93.4651 49.2651 93.4414 49.0876H94.2301L94.3287 50.118H94.2301C94.313 49.7859 94.5197 49.4961 94.8097 49.3056C95.1237 49.1021 95.4941 48.9984 95.8705 49.0085C96.2436 49.0004 96.6115 49.096 96.9312 49.2844C97.2406 49.4751 97.4855 49.751 97.6351 50.0774C97.8096 50.4675 97.8944 50.8905 97.8836 51.3162C97.8943 51.7432 97.8095 52.1673 97.6351 52.5588C97.4868 52.8876 97.2417 53.1656 96.9312 53.3576C96.6115 53.546 96.2436 53.6417 95.8705 53.6336C95.4986 53.6422 95.133 53.5384 94.8235 53.3364C94.5361 53.1443 94.3267 52.8596 94.232 52.5318H94.3306V55.4705H93.5144ZM95.6832 52.9929C95.8714 53.0005 96.059 52.9662 96.2318 52.8927C96.4045 52.8191 96.5581 52.7083 96.6808 52.5685C96.928 52.2829 97.0515 51.8655 97.0515 51.3162C97.0515 50.7669 96.928 50.3527 96.6808 50.0736C96.5568 49.9358 96.4028 49.8268 96.2302 49.7547C96.0576 49.6826 95.8707 49.6491 95.6832 49.6568C95.4975 49.6498 95.3126 49.6836 95.142 49.7557C94.9714 49.8278 94.8194 49.9365 94.6974 50.0736C94.4529 50.3514 94.3306 50.7656 94.3306 51.3162C94.3306 51.8668 94.4529 52.2842 94.6974 52.5685C94.819 52.7087 94.9717 52.8198 95.1439 52.8934C95.3162 52.967 95.5033 53.001 95.6911 52.9929H95.6832Z" fill="#151515"/>
<path d="M100.978 53.5849C100.58 53.5944 100.186 53.4988 99.8385 53.3081C99.5178 53.1211 99.2586 52.8466 99.0921 52.5176C98.9062 52.1391 98.8147 51.7221 98.8252 51.3015C98.8136 50.8778 98.9052 50.4574 99.0921 50.0758C99.2586 49.7468 99.5178 49.4724 99.8385 49.2854C100.186 49.0938 100.58 48.9982 100.978 49.0086C101.377 48.9984 101.771 49.094 102.12 49.2854C102.444 49.4699 102.704 49.745 102.869 50.0758C103.052 50.4551 103.142 50.8718 103.132 51.292C103.142 51.7152 103.052 52.1349 102.869 52.5176C102.704 52.8485 102.444 53.1236 102.12 53.3081C101.771 53.4986 101.377 53.5941 100.978 53.5849ZM100.978 52.951C101.16 52.9576 101.342 52.9232 101.51 52.8504C101.677 52.7777 101.826 52.6685 101.944 52.531C102.187 52.2485 102.308 51.8354 102.308 51.292C102.308 50.7485 102.187 50.3386 101.944 50.0625C101.824 49.9271 101.675 49.8199 101.508 49.7485C101.341 49.6772 101.16 49.6435 100.978 49.65C100.795 49.643 100.614 49.6764 100.447 49.7477C100.279 49.8191 100.13 49.9267 100.011 50.0625C99.7696 50.3374 99.649 50.7472 99.649 51.292C99.649 51.8367 99.7696 52.2497 100.011 52.531C100.129 52.6688 100.278 52.7783 100.445 52.8511C100.613 52.9238 100.795 52.958 100.978 52.951Z" fill="#151515"/>
<path d="M104.078 54.6628V52.9112H104.566C104.777 52.5915 104.926 52.2369 105.007 51.8648C105.105 51.3939 105.15 50.9141 105.144 50.4335V49.1426H108.349V52.9112H109.06V54.6628H108.367V53.5254H104.771V54.6628H104.078ZM105.331 52.9188H107.595V49.7568H105.858V50.5776C105.859 51.0094 105.814 51.4402 105.725 51.8629C105.648 52.2338 105.512 52.5902 105.321 52.9188H105.331Z" fill="#151515"/>
<path d="M112.095 53.5848C111.683 53.5949 111.277 53.4994 110.916 53.308C110.583 53.1214 110.314 52.8429 110.143 52.508C109.95 52.1212 109.856 51.6948 109.868 51.2651C109.856 50.8434 109.951 50.4254 110.147 50.0489C110.326 49.7221 110.599 49.4532 110.933 49.2757C111.292 49.0914 111.693 48.9994 112.099 49.0084C112.391 49.0077 112.682 49.0568 112.957 49.1535C113.214 49.2377 113.447 49.3804 113.635 49.5697L113.356 50.1329C113.191 49.9741 112.993 49.85 112.776 49.7683C112.578 49.692 112.367 49.6518 112.154 49.6499C111.958 49.64 111.762 49.6722 111.581 49.7442C111.4 49.8161 111.237 49.926 111.104 50.0661C110.851 50.3448 110.725 50.7477 110.725 51.2746C110.695 51.7155 110.829 52.1521 111.104 52.5042C111.235 52.6478 111.397 52.7611 111.578 52.8355C111.76 52.9099 111.957 52.9434 112.154 52.9337C112.364 52.9314 112.572 52.8926 112.769 52.8192C112.988 52.7397 113.189 52.6175 113.358 52.4603L113.637 53.014C113.445 53.2079 113.208 53.3539 112.945 53.4397C112.672 53.535 112.385 53.5841 112.095 53.5848Z" fill="#151515"/>
<path d="M114.715 53.5857V49.1426H115.515V50.9801H116.332L117.779 49.1426H118.665L116.984 51.3008L116.771 51.055C116.927 51.0676 117.079 51.1106 117.218 51.1817C117.354 51.26 117.476 51.3599 117.579 51.4774C117.72 51.6406 117.847 51.8153 117.958 51.9997L118.889 53.5799H118.012L117.198 52.2109C117.126 52.0758 117.036 51.9511 116.93 51.8403C116.847 51.7537 116.745 51.6879 116.631 51.6483C116.496 51.6104 116.355 51.5929 116.215 51.5965H115.515V53.5742L114.715 53.5857Z" fill="#151515"/>
<path d="M121.717 53.5849C121.319 53.5946 120.925 53.499 120.577 53.308C120.255 53.1219 119.995 52.8473 119.829 52.5176C119.643 52.1389 119.552 51.7219 119.564 51.3015C119.551 50.8779 119.642 50.4576 119.829 50.0758C119.995 49.7462 120.255 49.4715 120.577 49.2854C120.925 49.0936 121.319 48.9979 121.717 49.0086C122.116 48.9985 122.511 49.094 122.86 49.2854C123.183 49.47 123.443 49.7451 123.607 50.0758C123.791 50.4549 123.881 50.8718 123.87 51.292C123.881 51.7153 123.791 52.1352 123.607 52.5176C123.443 52.8484 123.183 53.1235 122.86 53.308C122.511 53.4986 122.116 53.5941 121.717 53.5849ZM121.717 52.951C121.9 52.9575 122.082 52.9232 122.249 52.8504C122.417 52.7777 122.565 52.6685 122.684 52.531C122.928 52.2484 123.05 51.8354 123.05 51.292C123.05 50.7485 122.928 50.3387 122.684 50.0625C122.564 49.927 122.415 49.8197 122.248 49.7483C122.08 49.677 121.899 49.6434 121.717 49.6501C121.535 49.6431 121.353 49.6766 121.186 49.748C121.018 49.8193 120.869 49.9268 120.749 50.0625C120.51 50.3374 120.39 50.7472 120.39 51.292C120.39 51.8367 120.51 52.2497 120.749 52.531C120.868 52.6687 121.017 52.778 121.184 52.8508C121.352 52.9236 121.534 52.9578 121.717 52.951Z" fill="#151515"/>
<path d="M125.082 53.5763V49.1228H125.838V52.8258H125.59L128.431 49.1324H129.121V53.586H128.366V49.8849H128.621L125.772 53.586L125.082 53.5763ZM127.102 48.7167C126.856 48.7195 126.611 48.6744 126.384 48.5839C126.169 48.4985 125.978 48.3669 125.824 48.199C125.66 48.0162 125.54 47.7998 125.474 47.5658L125.946 47.3964C126.028 47.6433 126.183 47.861 126.391 48.0219C126.601 48.1578 126.85 48.2252 127.102 48.2144C127.355 48.2221 127.606 48.155 127.82 48.0219C128.038 47.8585 128.208 47.6412 128.312 47.3926L128.757 47.5523C128.642 47.9063 128.41 48.2138 128.099 48.428C127.803 48.6186 127.456 48.7192 127.102 48.7167Z" fill="#151515"/>
<path d="M133.023 53.5857V49.1426H133.705L135.378 52.0496L137.058 49.1426H137.736V53.5857H137.013V50.045H137.209L135.58 52.8714H135.175L133.548 50.0354H133.745V53.5857H133.023Z" fill="#151515"/>
<path d="M141.243 53.5855C140.535 53.5855 139.975 53.3831 139.564 52.9783C139.154 52.5755 138.95 52.0237 138.95 51.3096C138.939 50.8885 139.031 50.471 139.22 50.0934C139.388 49.7625 139.648 49.4858 139.969 49.2953C140.306 49.0995 140.692 49.0004 141.083 49.0089C141.446 48.9968 141.806 49.0868 142.119 49.2685C142.405 49.4416 142.631 49.6975 142.766 50.0017C142.922 50.356 142.997 50.7399 142.988 51.1263V51.3898H139.578V50.9144H142.439L142.289 51.0289C142.312 50.6501 142.204 50.2748 141.982 49.9655C141.873 49.8366 141.735 49.7349 141.579 49.6686C141.423 49.6023 141.253 49.5732 141.083 49.5836C140.893 49.5735 140.703 49.6084 140.529 49.6854C140.355 49.7624 140.202 49.8793 140.082 50.0265C139.832 50.3781 139.708 50.8033 139.732 51.2332V51.3134C139.732 51.8518 139.867 52.2586 140.136 52.5335C140.284 52.6755 140.46 52.7855 140.653 52.8565C140.846 52.9275 141.051 52.9579 141.257 52.9459C141.509 52.9485 141.76 52.9104 142 52.8332C142.244 52.7487 142.469 52.6191 142.664 52.4514L142.93 53.0051C142.713 53.1956 142.457 53.3387 142.181 53.4251C141.879 53.5302 141.563 53.5844 141.243 53.5855Z" fill="#151515"/>
<path d="M143.797 54.6628V52.9112H144.297C144.513 52.5915 144.666 52.2369 144.749 51.8648C144.849 51.3939 144.896 50.9141 144.889 50.4335V49.1426H148.185V52.9112H148.913V54.6628H148.185V53.5254H144.517V54.6628H143.797ZM145.081 52.9188H147.394V49.7568H145.613V50.5776C145.614 51.0094 145.568 51.4402 145.477 51.8629C145.404 52.2328 145.271 52.5892 145.081 52.9188Z" fill="#151515"/>
<path d="M149.855 53.5761V49.1426H150.611V52.8289H150.366L153.204 49.1522H153.895V53.5857H153.139V49.9013H153.394L150.548 53.5857L149.855 53.5761Z" fill="#151515"/>
<path d="M159.263 54.7974V53.6331H155.375V49.1426H156.18V53.0005H158.433V49.1426H159.237V53.0005H159.953V54.7936L159.263 54.7974Z" fill="#151515"/>
<path d="M161.031 53.5761V49.1426H161.786V52.8289H161.541L164.378 49.1522H165.07V53.5857H164.315V49.9013H164.57L161.723 53.5857L161.031 53.5761Z" fill="#151515"/>
<path d="M166.551 53.5857V49.1426H167.37V50.9801H169.776V49.1426H170.59V53.5857H169.776V51.6156H167.37V53.5857H166.551Z" fill="#151515"/>
<path d="M174.034 53.5848C173.622 53.5949 173.214 53.4994 172.853 53.308C172.519 53.1219 172.249 52.8433 172.079 52.508C171.885 52.1214 171.79 51.695 171.802 51.2651C171.79 50.8433 171.886 50.4252 172.083 50.0489C172.26 49.724 172.53 49.4555 172.861 49.2757C173.22 49.0914 173.623 48.9994 174.03 49.0084C174.323 49.0077 174.614 49.0568 174.89 49.1535C175.147 49.2377 175.38 49.3804 175.569 49.5697L175.287 50.1329C175.122 49.9745 174.925 49.8505 174.709 49.7683C174.509 49.6918 174.297 49.6516 174.083 49.6499C173.887 49.6403 173.692 49.6727 173.51 49.7446C173.329 49.8165 173.166 49.9263 173.034 50.0661C172.779 50.3448 172.653 50.7477 172.654 51.2746C172.624 51.7155 172.759 52.1521 173.034 52.5042C173.164 52.6477 173.326 52.7609 173.508 52.8352C173.689 52.9096 173.886 52.9433 174.083 52.9337C174.294 52.9319 174.502 52.8931 174.699 52.8192C174.919 52.7401 175.12 52.6179 175.289 52.4603L175.571 53.014C175.378 53.2079 175.141 53.3539 174.878 53.4397C174.607 53.5338 174.321 53.5829 174.034 53.5848Z" fill="#151515"/>
<path d="M176.648 53.5857V49.1426H177.463V50.9801H178.277L179.724 49.1426H180.609L178.92 51.3008L178.704 51.055C178.86 51.0671 179.012 51.1102 179.151 51.1817C179.288 51.2594 179.411 51.3594 179.515 51.4774C179.654 51.6416 179.781 51.8162 179.893 51.9997L180.822 53.5799H179.948L179.134 52.2109C179.062 52.0758 178.972 51.9511 178.866 51.8403C178.783 51.7537 178.68 51.6879 178.566 51.6483C178.431 51.6105 178.291 51.593 178.15 51.5965H177.463V53.5742L176.648 53.5857Z" fill="#151515"/>
<path d="M181.629 53.5761V49.1426H182.384V52.8289H182.139L184.976 49.1522H185.668V53.5857H184.923V49.9013H185.178L182.331 53.5857L181.629 53.5761Z" fill="#151515"/>
<path d="M187.148 53.5763V49.1283H187.903V52.8267H187.662L190.496 49.138H191.188V53.586H190.427V49.8895H190.682L187.838 53.586L187.148 53.5763ZM189.165 48.7227C188.921 48.7273 188.679 48.6849 188.452 48.5978C188.238 48.5121 188.047 48.3807 187.893 48.2134C187.731 48.0299 187.611 47.814 187.543 47.581L188.016 47.4118C188.098 47.6517 188.249 47.8633 188.452 48.0211C188.66 48.1574 188.908 48.2248 189.159 48.2134C189.413 48.2213 189.664 48.1543 189.878 48.0211C190.097 47.8583 190.266 47.6412 190.368 47.3926L190.814 47.5521C190.698 47.9059 190.467 48.213 190.155 48.4268C189.862 48.6188 189.518 48.7218 189.165 48.7227Z" fill="#151515"/>
<path d="M198.983 54.7974V53.6331H195.094V49.1426H195.899V53.0005H198.151V49.1426H198.956V53.0005H199.671V54.7936L198.983 54.7974Z" fill="#151515"/>
<path d="M202.772 53.5855C202.063 53.5855 201.504 53.3834 201.094 52.9791C200.682 52.5767 200.478 52.0256 200.478 51.3124C200.465 50.8903 200.557 50.4716 200.743 50.092C200.913 49.762 201.172 49.4857 201.493 49.2949C201.831 49.0991 202.218 49.0001 202.61 49.0089C202.973 48.9968 203.332 49.0867 203.646 49.2682C203.932 49.4422 204.157 49.6975 204.293 50.0005C204.448 50.3546 204.524 50.7378 204.515 51.1236V51.3868H201.108V50.912H203.968L203.818 51.0264C203.841 50.6481 203.733 50.2732 203.511 49.9643C203.402 49.8356 203.264 49.7341 203.108 49.6678C202.953 49.6016 202.783 49.5725 202.614 49.5829C202.423 49.5727 202.233 49.6074 202.059 49.6844C201.885 49.7613 201.732 49.8781 201.612 50.0253C201.359 50.3752 201.234 50.8005 201.258 51.2304V51.3105C201.258 51.8483 201.391 52.264 201.66 52.5291C201.808 52.6706 201.984 52.7803 202.177 52.8512C202.37 52.922 202.576 52.9526 202.781 52.941C203.034 52.9437 203.285 52.9057 203.525 52.8285C203.769 52.744 203.994 52.6146 204.189 52.4471L204.455 53.0001C204.238 53.1899 203.984 53.3328 203.708 53.4196C203.407 53.526 203.091 53.5821 202.772 53.5855Z" fill="#151515"/>
<path d="M205.73 53.5857V49.1426H206.539V50.9801H208.953V49.1426H209.77V53.5857H208.953V51.6156H206.539V53.5857H205.73Z" fill="#151515"/>
<path d="M212.197 53.5857V49.7878H210.578V49.1426H214.617V49.7878H213.001V53.5857H212.197Z" fill="#151515"/>
<path d="M215.495 55.4705V50.145C215.495 49.9732 215.495 49.7977 215.477 49.6201C215.459 49.4426 215.445 49.2651 215.422 49.0876H216.218L216.317 50.118H216.218C216.301 49.7859 216.507 49.4961 216.796 49.3056C217.11 49.1021 217.48 48.9983 217.856 49.0085C218.228 49.0004 218.595 49.096 218.914 49.2844C219.222 49.4752 219.466 49.7511 219.614 50.0774C219.79 50.4671 219.875 50.8902 219.864 51.3162C219.875 51.7434 219.79 52.1678 219.614 52.5588C219.467 52.8874 219.223 53.1654 218.914 53.3576C218.595 53.546 218.228 53.6417 217.856 53.6336C217.485 53.6424 217.119 53.5387 216.81 53.3364C216.523 53.1443 216.315 52.8596 216.22 52.5318H216.319V55.4705H215.495ZM217.658 52.9929C217.845 53.0005 218.032 52.9662 218.205 52.8927C218.377 52.8191 218.53 52.7083 218.653 52.5685C218.9 52.2829 219.022 51.8661 219.022 51.3162C219.022 50.7663 218.9 50.3514 218.653 50.0736C218.529 49.9358 218.375 49.8268 218.203 49.7547C218.031 49.6826 217.845 49.6492 217.658 49.6568C217.472 49.6498 217.288 49.6836 217.118 49.7557C216.948 49.8278 216.796 49.9365 216.674 50.0736C216.425 50.3476 216.301 50.7618 216.301 51.3162C216.301 51.8706 216.423 52.288 216.667 52.5685C216.789 52.7097 216.942 52.8215 217.116 52.8952C217.289 52.9688 217.477 53.0022 217.666 52.9929H217.658Z" fill="#151515"/>
<path d="M11.1789 44.9406C11.0967 42.8936 12.6737 41.7959 13.3903 44.805C14.1069 47.814 15.0803 54.5282 15.0803 54.5282C15.0803 54.5282 11.297 53.8655 11.3381 53.5968C11.3792 53.3281 11.1789 44.9406 11.1789 44.9406Z" fill="#00578A"/>
<path d="M7.5428 40.0185C7.44217 37.4912 9.39804 36.1473 10.2857 39.8502C11.1733 43.5531 12.3861 51.8362 12.3861 51.8362C12.3861 51.8362 7.68987 51.0201 7.74148 50.6886C7.79308 50.3571 7.5428 40.0185 7.5428 40.0185Z" fill="#007D99"/>
<path d="M3.88815 36.3918C3.77708 33.5808 5.90761 32.0807 6.8719 36.2053C7.83619 40.3298 9.15641 49.5475 9.15641 49.5475C9.15641 49.5475 3.0425 43.1588 3.09803 42.7959C3.15357 42.433 3.88815 36.3918 3.88815 36.3918Z" fill="#01A6A0"/>
<path d="M28.5765 73.1099C27.7136 59.5535 13.6377 59.4677 7.59469 54.6597C1.55169 49.8517 0.224122 37.5789 0.596863 34.8253C0.969603 32.0716 2.43248 30.7115 3.64772 34.5574C4.86295 38.4033 5.99904 45.3295 10.5843 48.5297C15.1695 51.73 23.7607 52.1511 18.8714 48.6165C12.4888 44.0024 13.5941 39.5426 15.1101 38.61C16.2695 37.8968 18.9837 42.8897 22.7647 44.9288C26.5457 46.9679 32.2024 48.5719 34.8193 54.9239C37.7941 62.1448 28.5765 73.1099 28.5765 73.1099Z" fill="#00C6BF"/>
<path d="M57.2616 6.02584C53.0957 3.18033 46.1738 1.55216 39.3819 5.92378C36.6284 8.54727 34.3134 12.1022 32.7531 16.7188C32.7531 16.7188 24.768 7.92704 11.9924 12.7223C-0.783225 17.5176 0.00966736 31.37 0.00966736 31.37C0.00966736 31.37 3.68607 20.0901 15.9798 19.3755C28.2736 18.661 34.6748 30.5137 34.6748 30.5137C34.6748 30.5137 36.2357 18.5052 47.3848 15.6469C57.667 13.0209 63.8547 21.1032 61.2542 31.1633C65.6852 20.9246 63.8827 10.5455 57.2616 6.02584Z" fill="#00578A"/>
<path d="M52.2383 48.9835C52.2383 48.9835 41.7129 36.4876 23.1562 43.1603C23.1562 43.1603 32.6394 42.9591 36.9585 53.7892C39.6462 60.528 33.1234 70.4159 33.1234 70.4159C33.1234 70.4159 44.5923 60.9892 52.2383 48.9835Z" fill="#00578A"/>
<path d="M71.3442 8.42509C65.0524 -0.83138 49.3254 -3.57641 39.3519 5.89651C46.1489 1.53438 53.076 3.15902 57.245 5.99835C63.8787 10.5082 65.6647 20.8545 61.2508 31.0863C60.9792 32.1239 60.6312 33.1402 60.2098 34.1268C55.9591 44.1294 50.8869 50.4956 50.8869 50.4956C43.4648 61.7001 32.8516 70.5508 32.8516 70.5508C73.9601 53.3264 82.1291 24.305 71.3442 8.42509Z" fill="#00C6BF"/>
<path style="mix-blend-mode:multiply" opacity="0.29" d="M56.6432 16.5767C62.149 19.9561 62.2495 26.7855 61.136 31.1007C65.5441 20.8715 63.7468 10.5278 57.1448 6.01906C52.9908 3.18045 46.0888 1.55622 39.3164 5.91725C44.7872 2.7324 57.5228 0.145825 56.6432 16.5767Z" fill="#00578A"/>
<path style="mix-blend-mode:multiply" opacity="0.29" d="M48.4875 45.6426C46.2541 53.6628 37.1416 66.439 33.1211 70.4161C33.1211 70.4161 42.8591 62.485 52.2398 48.7616C51.0784 47.6922 49.8276 46.5337 48.4875 45.6426Z" fill="#00578A"/>
</svg>
